<svg width="49" height="48" viewBox="0 0 49 48" fill="none" xmlns="http://www.w3.org/2000/svg">
<circle cx="24.5" cy="24" r="24" fill="#F44336" fill-opacity="0.2"/>
<path d="M25 32.9583C20.0583 32.9583 16.0416 28.9417 16.0416 24C16.0416 19.0583 20.0583 15.0417 25 15.0417C29.9416 15.0417 33.9583 19.0583 33.9583 24C33.9583 28.9417 29.9416 32.9583 25 32.9583ZM25 16.2917C20.75 16.2917 17.2916 19.75 17.2916 24C17.2916 28.25 20.75 31.7083 25 31.7083C29.25 31.7083 32.7083 28.25 32.7083 24C32.7083 19.75 29.25 16.2917 25 16.2917Z" fill="#F44336"/>
<path d="M22.5 32.125H21.6666C21.325 32.125 21.0416 31.8417 21.0416 31.5C21.0416 31.1583 21.3083 30.8833 21.65 30.875C20.3416 26.4083 20.3416 21.5917 21.65 17.125C21.3083 17.1167 21.0416 16.8417 21.0416 16.5C21.0416 16.1583 21.325 15.875 21.6666 15.875H22.5C22.7 15.875 22.8916 15.975 23.0083 16.1333C23.125 16.3 23.1583 16.5083 23.0916 16.7C21.525 21.4083 21.525 26.5917 23.0916 31.3083C23.1583 31.5 23.125 31.7083 23.0083 31.875C22.8916 32.025 22.7 32.125 22.5 32.125Z" fill="#F44336"/>
<path d="M27.5 32.125C27.4333 32.125 27.3667 32.1167 27.3 32.0917C26.975 31.9833 26.7917 31.625 26.9083 31.3C28.475 26.5917 28.475 21.4083 26.9083 16.6917C26.8 16.3667 26.975 16.0083 27.3 15.9C27.6333 15.7917 27.9833 15.9667 28.0917 16.2917C29.75 21.2583 29.75 26.725 28.0917 31.6833C28.0083 31.9583 27.7583 32.125 27.5 32.125Z" fill="#F44336"/>
<path d="M25 28.3333C22.675 28.3333 20.3583 28.0083 18.125 27.35C18.1167 27.6833 17.8417 27.9583 17.5 27.9583C17.1583 27.9583 16.875 27.675 16.875 27.3333V26.5C16.875 26.3 16.975 26.1083 17.1333 25.9917C17.3 25.875 17.5083 25.8417 17.7 25.9083C22.4083 27.475 27.6 27.475 32.3083 25.9083C32.5 25.8417 32.7083 25.875 32.875 25.9917C33.0417 26.1083 33.1333 26.3 33.1333 26.5V27.3333C33.1333 27.675 32.85 27.9583 32.5083 27.9583C32.1667 27.9583 31.8917 27.6917 31.8833 27.35C29.6417 28.0083 27.325 28.3333 25 28.3333Z" fill="#F44336"/>
<path d="M32.5 22.125C32.4334 22.125 32.3667 22.1167 32.3 22.0917C27.5917 20.525 22.4 20.525 17.6917 22.0917C17.3584 22.2 17.0084 22.025 16.9 21.7C16.8 21.3667 16.975 21.0167 17.3 20.9083C22.2667 19.25 27.7334 19.25 32.6917 20.9083C33.0167 21.0167 33.2 21.375 33.0834 21.7C33.0084 21.9583 32.7584 22.125 32.5 22.125Z" fill="#F44336"/>
</svg>
