<svg width="49" height="48" viewBox="0 0 49 48" fill="none" xmlns="http://www.w3.org/2000/svg">
<circle cx="24.5" cy="24" r="24" fill="#F44336" fill-opacity="0.2"/>
<path d="M31 24.75H19C18.59 24.75 18.25 24.41 18.25 24C18.25 23.59 18.59 23.25 19 23.25H31C31.41 23.25 31.75 23.59 31.75 24C31.75 24.41 31.41 24.75 31 24.75Z" fill="#F44336"/>
<path d="M25 30.75C24.59 30.75 24.25 30.41 24.25 30V18C24.25 17.59 24.59 17.25 25 17.25C25.41 17.25 25.75 17.59 25.75 18V30C25.75 30.41 25.41 30.75 25 30.75Z" fill="#F44336"/>
</svg>
