<svg width="64" height="64" viewBox="0 0 64 64" fill="none" xmlns="http://www.w3.org/2000/svg">
<circle cx="32" cy="32" r="32" fill="#009688" fill-opacity="0.2"/>
<path d="M32 22C26.49 22 22 26.49 22 32C22 37.51 26.49 42 32 42C37.51 42 42 37.51 42 32C42 26.49 37.51 22 32 22ZM36.78 29.7L31.11 35.37C30.97 35.51 30.78 35.59 30.58 35.59C30.38 35.59 30.19 35.51 30.05 35.37L27.22 32.54C26.93 32.25 26.93 31.77 27.22 31.48C27.51 31.19 27.99 31.19 28.28 31.48L30.58 33.78L35.72 28.64C36.01 28.35 36.49 28.35 36.78 28.64C37.07 28.93 37.07 29.4 36.78 29.7Z" fill="#009688"/>
</svg>
