<svg width="23" height="22" viewBox="0 0 23 22" fill="none" xmlns="http://www.w3.org/2000/svg">
<path d="M10.95 20.8542H7.46665C3.44248 20.8542 1.64581 19.0575 1.64581 15.0333V11.55C1.64581 7.52584 3.44248 5.72917 7.46665 5.72917H10.2166C10.5925 5.72917 10.9041 6.04084 10.9041 6.41667C10.9041 6.79251 10.5925 7.10417 10.2166 7.10417H7.46665C4.18498 7.10417 3.02081 8.26834 3.02081 11.55V15.0333C3.02081 18.315 4.18498 19.4792 7.46665 19.4792H10.95C14.2316 19.4792 15.3958 18.315 15.3958 15.0333V12.2833C15.3958 11.9075 15.7075 11.5958 16.0833 11.5958C16.4591 11.5958 16.7708 11.9075 16.7708 12.2833V15.0333C16.7708 19.0575 14.9741 20.8542 10.95 20.8542Z" fill="white"/>
<path d="M16.0833 12.9708H13.15C10.5742 12.9708 9.52917 11.9258 9.52917 9.34999V6.41666C9.52917 6.14166 9.69417 5.88499 9.95084 5.78416C10.2075 5.67416 10.5008 5.73833 10.7025 5.93083L16.5692 11.7975C16.7617 11.99 16.8258 12.2925 16.7158 12.5492C16.615 12.8058 16.3583 12.9708 16.0833 12.9708ZM10.9042 8.07583V9.34999C10.9042 11.1742 11.3258 11.5958 13.15 11.5958H14.4242L10.9042 8.07583Z" fill="white"/>
<path d="M14.8 2.52083H11.1334C10.7575 2.52083 10.4459 2.20916 10.4459 1.83333C10.4459 1.45749 10.7575 1.14583 11.1334 1.14583H14.8C15.1759 1.14583 15.4875 1.45749 15.4875 1.83333C15.4875 2.20916 15.1759 2.52083 14.8 2.52083Z" fill="white"/>
<path d="M6.91669 5.27083C6.54085 5.27083 6.22919 4.95916 6.22919 4.58333C6.22919 2.68583 7.76919 1.14583 9.66669 1.14583H12.0684C12.4442 1.14583 12.7559 1.45749 12.7559 1.83333C12.7559 2.20916 12.4442 2.52083 12.0684 2.52083H9.66669C8.53002 2.52083 7.60419 3.44666 7.60419 4.58333C7.60419 4.95916 7.29252 5.27083 6.91669 5.27083Z" fill="white"/>
<path d="M18.0908 16.2708C17.715 16.2708 17.4033 15.9592 17.4033 15.5833C17.4033 15.2075 17.715 14.8958 18.0908 14.8958C19.1358 14.8958 19.9792 14.0433 19.9792 13.0075V7.33333C19.9792 6.95749 20.2908 6.64583 20.6667 6.64583C21.0425 6.64583 21.3542 6.95749 21.3542 7.33333V13.0075C21.3542 14.8042 19.8875 16.2708 18.0908 16.2708Z" fill="white"/>
<path d="M20.6667 8.02083H17.9167C15.4784 8.02083 14.4792 7.02167 14.4792 4.58333V1.83333C14.4792 1.55833 14.6442 1.30167 14.9009 1.20083C15.1575 1.09083 15.4509 1.155 15.6525 1.3475L21.1525 6.8475C21.345 7.04 21.4092 7.3425 21.2992 7.59917C21.1984 7.85583 20.9417 8.02083 20.6667 8.02083ZM15.8542 3.4925V4.58333C15.8542 6.26083 16.2392 6.64583 17.9167 6.64583H19.0075L15.8542 3.4925Z" fill="white"/>
</svg>
