<svg width="32" height="32" viewBox="0 0 32 32" fill="none" xmlns="http://www.w3.org/2000/svg">
<g clip-path="url(#clip0_130_3811)">
<circle cx="16" cy="16" r="16" fill="white"/>
<path d="M14.4533 14.96L13.536 11.536C14.5067 11.296 17.3213 10.1347 18.056 12.2107C18.416 14.4533 15.4187 14.7133 14.4533 14.96ZM14.8387 16.7107L15.8453 20.4827C17.0027 20.1787 20.5067 19.8693 20.1667 17.348C19.5893 15.1267 16 16.4067 14.8387 16.7107ZM32 16C32 24.836 24.836 32 16 32C7.164 32 0 24.836 0 16C0 7.164 7.164 0 16 0C24.836 0 32 7.164 32 16ZM23.5453 16.8813C23.3013 15.3467 21.624 14.088 20.232 13.9453C21.0893 13.1853 21.524 12.0773 20.992 10.628C20.188 8.804 18.34 8.41467 16.0787 8.792L15.3507 5.97333L13.6373 6.416L14.352 9.22667C13.9013 9.34 13.4387 9.43733 12.98 9.568L12.264 6.77333L10.5507 7.216L11.2773 10.0347C10.908 10.14 7.81733 10.932 7.81733 10.932L8.288 12.768C8.288 12.768 9.54667 12.4147 9.53467 12.4427C10.2333 12.26 10.5627 12.6093 10.716 12.9387L12.7133 20.6627C12.7373 20.8867 12.6973 21.268 12.2173 21.3973C12.2453 21.4133 10.9707 21.7187 10.9707 21.7187L11.1573 23.8587C11.1573 23.8587 14.2187 23.0747 14.6213 22.9733L15.356 25.824L17.0693 25.3813L16.3347 22.5107C16.8053 22.4013 17.264 22.2867 17.7107 22.1693L18.4413 25.024L20.1547 24.5813L19.42 21.7347C22.0627 21.092 23.9267 19.428 23.5453 16.8813Z" fill="#16C292"/>
</g>
<defs>
<clipPath id="clip0_130_3811">
<rect width="32" height="32" fill="white"/>
</clipPath>
</defs>
</svg>
