<svg width="32" height="32" viewBox="0 0 32 32" fill="none" xmlns="http://www.w3.org/2000/svg">
<g clip-path="url(#clip0_130_3820)">
<path d="M7 3H24L28 14L16 28.5L4.5 15L7 3Z" fill="white"/>
<path d="M25.0053 14.0237C25.0053 14.8571 22.0213 15.5544 18.0213 15.7304L18.0239 15.7317C17.3579 15.7678 16.6909 15.7824 16.0239 15.7757C14.9853 15.7757 14.2506 15.7451 13.9919 15.7331C9.98393 15.5557 6.99193 14.8584 6.99193 14.0237C6.99193 13.1891 9.98393 12.4904 13.9919 12.3117V15.0371C14.2533 15.0571 15.0039 15.1011 16.0413 15.1011C17.2853 15.1011 17.9079 15.0477 18.0213 15.0384V12.3144C22.0213 12.4917 25.0053 13.1904 25.0053 14.0237ZM31.9253 14.7517L16.1653 29.8531C16.1206 29.8959 16.0611 29.9197 15.9993 29.9197C15.9374 29.9197 15.8779 29.8959 15.8333 29.8531L0.0745947 14.7517C0.0376135 14.717 0.012739 14.6713 0.00362031 14.6214C-0.00549835 14.5715 0.00161895 14.52 0.023928 14.4744L5.85859 2.21841C5.87767 2.17696 5.90835 2.14192 5.94692 2.11755C5.98549 2.09317 6.0303 2.0805 6.07593 2.08107H25.9266C25.9715 2.08127 26.0155 2.0943 26.0533 2.11863C26.0911 2.14296 26.1211 2.17758 26.1399 2.21841L31.9759 14.4744C31.9982 14.52 32.0054 14.5715 31.9962 14.6214C31.9871 14.6713 31.9622 14.717 31.9253 14.7517ZM25.9546 14.2131C25.9546 13.1384 22.5519 12.2397 18.0253 12.0304V9.59307H23.6066V5.87307H8.41059V9.59307H13.9906V12.0317C9.45459 12.2397 6.04393 13.1384 6.04393 14.2144C6.04393 15.2917 9.45459 16.1877 13.9906 16.3984V24.2144H18.0239V16.3957C22.5493 16.1864 25.9546 15.2891 25.9546 14.2131Z" fill="#4FAF94"/>
</g>
<defs>
<clipPath id="clip0_130_3820">
<rect width="32" height="32" fill="white"/>
</clipPath>
</defs>
</svg>
