<svg width="32" height="32" viewBox="0 0 32 32" fill="none" xmlns="http://www.w3.org/2000/svg">
<rect width="32" height="32" rx="16" fill="white"/>
<g clip-path="url(#clip0_130_3830)">
<path d="M16 0C12.8355 0 9.74207 0.938384 7.11088 2.69649C4.4797 4.45459 2.42894 6.95345 1.21793 9.87706C0.00693262 12.8007 -0.309921 16.0177 0.307443 19.1214C0.924806 22.2251 2.44866 25.0761 4.6863 27.3137C6.92394 29.5513 9.77487 31.0752 12.8786 31.6926C15.9823 32.3099 19.1993 31.9931 22.1229 30.7821C25.0466 29.5711 27.5454 27.5203 29.3035 24.8891C31.0616 22.2579 32 19.1645 32 16C32 11.7565 30.3143 7.68687 27.3137 4.68629C24.3131 1.68571 20.2435 0 16 0ZM15.6507 4.904H19.096C19.1665 4.90409 19.236 4.92046 19.2991 4.95185C19.3622 4.98323 19.4172 5.02878 19.4598 5.08493C19.5024 5.14108 19.5314 5.20631 19.5446 5.27553C19.5579 5.34476 19.5549 5.41611 19.536 5.484L16.8293 14.708L19.3693 13.932L18.8253 15.7787L16.26 16.5253L14.596 22.144H23.4973C23.5679 22.1444 23.6374 22.1611 23.7004 22.1928C23.7634 22.2245 23.8183 22.2704 23.8606 22.3268C23.903 22.3832 23.9317 22.4487 23.9445 22.518C23.9574 22.5874 23.954 22.6588 23.9347 22.7267L23.1587 25.3933C23.1215 25.5202 23.0443 25.6316 22.9385 25.7109C22.8328 25.7902 22.7042 25.8332 22.572 25.8333H8.97734L11.2747 18.0707L8.73334 18.844L9.29334 17.0293L11.84 16.256L15.0693 5.34933C15.1048 5.2218 15.1808 5.1093 15.286 5.02893C15.3911 4.94855 15.5197 4.90469 15.652 4.904" fill="#2E5397"/>
</g>
<defs>
<clipPath id="clip0_130_3830">
<rect width="32" height="32" fill="white"/>
</clipPath>
</defs>
</svg>
