<svg width="33" height="32" viewBox="0 0 33 32" fill="none" xmlns="http://www.w3.org/2000/svg">
<g clip-path="url(#clip0_130_3802)">
<path d="M32.0214 19.8692C29.8836 28.4452 21.1947 33.6585 12.631 31.5206C4.05473 29.3829 -1.15852 20.6944 0.979358 12.1307C3.11711 3.55473 11.7934 -1.65852 20.3696 0.479359C28.9334 2.60461 34.1592 11.2931 32.0214 19.8692Z" fill="url(#paint0_linear_130_3802)"/>
<path d="M23.275 14.1375C23.5875 12.0125 21.975 10.8625 19.75 10.1L20.475 7.2125L18.725 6.775L18.025 9.5875C17.5625 9.475 17.0875 9.3625 16.6125 9.2625L17.3125 6.4375L15.5625 6L14.85 8.875C14.4625 8.7875 14.0875 8.7 13.725 8.6125V8.6L11.3 8L10.8375 9.875C10.8375 9.875 12.1375 10.175 12.1125 10.1875C12.825 10.3625 12.95 10.8375 12.925 11.2125L12.1 14.5C12.15 14.5125 12.2125 14.525 12.2875 14.5625C12.225 14.55 12.1625 14.5375 12.1 14.5125L10.95 19.1125C10.8625 19.325 10.6375 19.65 10.15 19.525C10.1625 19.55 8.875 19.2125 8.875 19.2125L8 21.225L10.2875 21.8C10.7125 21.9125 11.125 22.0125 11.5375 22.125L10.8125 25.0375L12.5625 25.475L13.2875 22.5875C13.7625 22.7125 14.2375 22.8375 14.6875 22.95L13.975 25.825L15.725 26.2625L16.45 23.35C19.45 23.9125 21.7 23.6875 22.6375 20.975C23.4 18.8 22.6 17.5375 21.025 16.7125C22.1875 16.45 23.05 15.6875 23.275 14.1375ZM19.2625 19.7625C18.725 21.9375 15.05 20.7625 13.8625 20.4625L14.825 16.6C16.0125 16.9 19.8375 17.4875 19.2625 19.7625ZM19.8125 14.1C19.3125 16.0875 16.2625 15.075 15.275 14.825L16.15 11.325C17.1375 11.575 20.325 12.0375 19.8125 14.1Z" fill="white"/>
</g>
<defs>
<linearGradient id="paint0_linear_130_3802" x1="1599.63" y1="-0.767999" x2="1599.63" y2="3199.68" gradientUnits="userSpaceOnUse">
<stop stop-color="#F9AA4B"/>
<stop offset="1" stop-color="#F7931A"/>
</linearGradient>
<clipPath id="clip0_130_3802">
<rect width="32" height="32" fill="white" transform="translate(0.5)"/>
</clipPath>
</defs>
</svg>
