<svg width="52" height="52" viewBox="0 0 52 52" fill="none" xmlns="http://www.w3.org/2000/svg">
<rect width="52" height="52" rx="26" fill="#C3FF19" fill-opacity="0.1"/>
<g opacity="0.4">
<path fill-rule="evenodd" clip-rule="evenodd" d="M16.1728 13.9997C17.6975 13.4719 19.7283 13.1667 21.9166 13.1667C24.1049 13.1667 26.1358 13.4719 27.6605 13.9997C28.4173 14.2617 29.1132 14.6002 29.6429 15.0337C30.164 15.4602 30.6666 16.1041 30.6666 16.9584V19.0067C30.6666 19.2166 30.6666 19.3215 30.6249 19.3992C30.5918 19.4605 30.5438 19.5086 30.4824 19.5416C30.4048 19.5834 30.2976 19.5834 30.0833 19.5834C27.7536 19.5834 25.5203 19.9057 23.767 20.5127C22.904 20.8114 21.9973 21.2334 21.2487 21.8461C20.7958 22.2168 20.2556 22.7845 19.9159 23.5505C19.8411 23.7193 19.8037 23.8038 19.7395 23.8417C19.6753 23.8797 19.5919 23.8727 19.4253 23.8586C17.3763 23.685 15.6477 23.2852 14.3483 22.6596C14.0893 22.5349 13.8493 22.4025 13.6283 22.2622C13.4167 22.128 13.3109 22.0609 13.2388 21.9296C13.1666 21.7984 13.1666 21.6558 13.1666 21.3706V16.9584C13.1666 16.1041 13.6692 15.4602 14.1903 15.0337C14.7201 14.6002 15.416 14.2617 16.1728 13.9997ZM15.6681 16.8394C15.9059 16.6449 16.3205 16.4177 16.936 16.2047C18.1559 15.7824 19.9168 15.5 21.9166 15.5C23.9164 15.5 25.6774 15.7824 26.8972 16.2047C27.5128 16.4177 27.9274 16.6449 28.1652 16.8394C28.2419 16.9023 28.2419 17.0144 28.1652 17.0773C27.9274 17.2718 27.5128 17.499 26.8972 17.712C25.6774 18.1343 23.9164 18.4167 21.9166 18.4167C19.9168 18.4167 18.1559 18.1343 16.936 17.712C16.3205 17.499 15.9059 17.2718 15.6681 17.0773C15.5913 17.0144 15.5913 16.9023 15.6681 16.8394Z" fill="#C3FF19"/>
<path d="M19.5833 26.0602C19.5833 25.8553 19.5833 25.7528 19.5221 25.686C19.461 25.6191 19.3577 25.6099 19.1511 25.5914C17.0093 25.3997 15.1033 24.9653 13.5891 24.2364C13.5158 24.201 13.4792 24.1834 13.4554 24.1776C13.3238 24.1454 13.1998 24.2233 13.1717 24.3559C13.1666 24.3798 13.1666 24.418 13.1666 24.4945V28.1355C13.1666 28.4447 13.1666 28.5991 13.2507 28.7382C13.3347 28.8774 13.4543 28.9403 13.6935 29.066C13.8808 29.1644 14.0824 29.2578 14.2988 29.3459C15.5369 29.8504 17.163 30.1471 19.0907 30.2837C19.3201 30.2999 19.4347 30.308 19.509 30.2388C19.5833 30.1696 19.5833 30.0535 19.5833 29.8213V26.0602Z" fill="#C3FF19"/>
<path d="M19.5833 32.5101C19.5833 32.3012 19.5833 32.1967 19.5203 32.1293C19.4572 32.062 19.3519 32.0551 19.1414 32.0414C17.028 31.9028 15.14 31.5783 13.6386 30.9666C13.5099 30.9141 13.4456 30.888 13.3998 30.888C13.3021 30.8881 13.2209 30.9427 13.1839 31.0331C13.1666 31.0756 13.1666 31.1419 13.1666 31.2745V34.1667C13.1666 35.041 13.7393 35.6521 14.2429 36.0184C14.7721 36.4034 15.4628 36.7014 16.2113 36.9317C17.1324 37.2152 18.2413 37.4261 19.4598 37.5477C19.8854 37.5902 20.0983 37.6114 20.1767 37.5003C20.2552 37.3894 20.153 37.1723 19.9488 36.738C19.7289 36.2707 19.5833 35.725 19.5833 35.1003V32.5101Z" fill="#C3FF19"/>
</g>
<path fill-rule="evenodd" clip-rule="evenodd" d="M30.0834 21.3333C27.8951 21.3333 25.8642 21.6385 24.3395 22.1663C23.5827 22.4283 22.8868 22.7668 22.3571 23.2004C21.8359 23.6269 21.3334 24.2707 21.3334 25.125V28.1942C21.3334 28.7224 21.3334 28.9865 21.4787 29.2497C21.624 29.5129 21.8041 29.6263 22.1642 29.8531C23.9293 30.9644 26.6514 31.5414 30.0835 31.5414C33.5156 31.5414 36.2377 30.9644 38.0027 29.8531C38.3627 29.6264 38.5428 29.513 38.688 29.2498C38.8334 28.9866 38.8334 28.7225 38.8334 28.1942V25.1252C38.8334 24.271 38.3308 23.6269 37.8096 23.2004C37.28 22.7668 36.584 22.4283 35.8272 22.1663C34.3025 21.6385 32.2717 21.3333 30.0834 21.3333ZM25.1028 24.3713C24.4872 24.5843 24.0726 24.8115 23.8348 25.0061C23.7581 25.069 23.7581 25.181 23.8348 25.2439C24.0726 25.4385 24.4872 25.6656 25.1028 25.8786C26.3226 26.301 28.0836 26.5833 30.0834 26.5833C32.0832 26.5833 33.8441 26.301 35.064 25.8786C35.6795 25.6656 36.0942 25.4385 36.3319 25.2439C36.4087 25.181 36.4087 25.069 36.3319 25.0061C36.0942 24.8115 35.6795 24.5843 35.064 24.3713C33.8441 23.949 32.0832 23.6666 30.0834 23.6666C28.0836 23.6666 26.3226 23.949 25.1028 24.3713Z" fill="#C3FF19"/>
<path d="M30.0835 33.2914C33.406 33.2914 36.3326 32.7802 38.4737 31.6052C38.6371 31.5155 38.7189 31.4707 38.7761 31.5046C38.8334 31.5385 38.8334 31.63 38.8334 31.8129V35.1002C38.8334 35.9576 38.3183 36.5952 37.7997 37.0103C37.2698 37.4343 36.5748 37.7647 35.8196 38.0203C34.2975 38.5355 32.2695 38.8336 30.0834 38.8336C27.8973 38.8336 25.8693 38.5355 24.3471 38.0203C23.5919 37.7647 22.8969 37.4343 22.3671 37.0103C21.8484 36.5952 21.3334 35.9576 21.3334 35.1002V31.8128C21.3334 31.6299 21.3334 31.5384 21.3906 31.5044C21.4479 31.4706 21.5296 31.5154 21.693 31.6051C23.8342 32.7801 26.7608 33.2914 30.0835 33.2914Z" fill="#C3FF19"/>
</svg>
