<svg width="24" height="24" viewBox="0 0 24 24" fill="none" xmlns="http://www.w3.org/2000/svg">
<path d="M19.0253 1.25C19.4697 1.24999 19.8408 1.24999 20.1454 1.27077C20.4625 1.29241 20.762 1.33905 21.0524 1.45933C21.7262 1.73844 22.2616 2.27379 22.5407 2.94762C22.661 3.23801 22.7076 3.53754 22.7292 3.85464C22.75 4.15925 22.75 4.53028 22.75 4.97474V9.02526C22.75 9.46972 22.75 9.84075 22.7292 10.1454C22.7076 10.4625 22.661 10.762 22.5407 11.0524C22.2616 11.7262 21.7262 12.2616 21.0524 12.5407C20.762 12.661 20.4625 12.7076 20.1454 12.7292C19.8408 12.75 19.4697 12.75 19.0253 12.75H18.9747C18.5303 12.75 18.1592 12.75 17.8546 12.7292C17.5375 12.7076 17.238 12.661 16.9476 12.5407C16.2738 12.2616 15.7384 11.7262 15.4593 11.0524C15.339 10.762 15.2924 10.4625 15.2708 10.1454C15.25 9.84076 15.25 9.46972 15.25 9.02526V4.97475C15.25 4.53029 15.25 4.15925 15.2708 3.85464C15.2924 3.53754 15.339 3.23801 15.4593 2.94762C15.7384 2.27379 16.2738 1.73844 16.9476 1.45933C17.238 1.33905 17.5375 1.29241 17.8546 1.27077C18.1592 1.24999 18.5303 1.24999 18.9747 1.25H19.0253Z" fill="#C3FF19"/>
<path opacity="0.4" d="M19.0253 15.25C19.4697 15.25 19.8408 15.25 20.1454 15.2708C20.4625 15.2924 20.762 15.339 21.0524 15.4593C21.7262 15.7384 22.2616 16.2738 22.5407 16.9476C22.661 17.238 22.7076 17.5375 22.7292 17.8546C22.75 18.1592 22.75 18.5303 22.75 18.9747V19.0253C22.75 19.4697 22.75 19.8408 22.7292 20.1454C22.7076 20.4625 22.661 20.762 22.5407 21.0524C22.2616 21.7262 21.7262 22.2616 21.0524 22.5407C20.762 22.661 20.4625 22.7076 20.1454 22.7292C19.8408 22.75 19.4697 22.75 19.0253 22.75H18.9747C18.5303 22.75 18.1592 22.75 17.8546 22.7292C17.5375 22.7076 17.238 22.661 16.9476 22.5407C16.2738 22.2616 15.7384 21.7262 15.4593 21.0524C15.339 20.762 15.2924 20.4625 15.2708 20.1454C15.25 19.8408 15.25 19.4697 15.25 19.0253V18.9747C15.25 18.5303 15.25 18.1592 15.2708 17.8546C15.2924 17.5375 15.339 17.238 15.4593 16.9476C15.7384 16.2738 16.2738 15.7384 16.9476 15.4593C17.238 15.339 17.5375 15.2924 17.8546 15.2708C18.1592 15.25 18.5303 15.25 18.9747 15.25H19.0253Z" fill="#C3FF19"/>
<path d="M8.05203 11.25C8.9505 11.25 9.69971 11.2499 10.2945 11.3299C10.9223 11.4143 11.4891 11.6 11.9445 12.0555C12.4 12.5109 12.5857 13.0777 12.6701 13.7055C12.7501 14.3003 12.75 15.0495 12.75 15.948V18.052C12.75 18.9505 12.7501 19.6997 12.6701 20.2945C12.5857 20.9223 12.4 21.4891 11.9445 21.9445C11.4891 22.4 10.9223 22.5857 10.2945 22.6701C9.69971 22.7501 8.9505 22.75 8.05203 22.75H5.94801C5.04954 22.75 4.3003 22.7501 3.70552 22.6701C3.07773 22.5857 2.51093 22.4 2.05546 21.9445C1.59999 21.4891 1.41432 20.9223 1.32991 20.2945C1.24995 19.6997 1.24997 18.9505 1.25 18.052V15.948C1.24997 15.0495 1.24995 14.3003 1.32991 13.7055C1.41432 13.0777 1.59999 12.5109 2.05546 12.0555C2.51093 11.6 3.07773 11.4143 3.70552 11.3299C4.3003 11.2499 5.04951 11.25 5.94797 11.25H8.05203Z" fill="#C3FF19"/>
<path opacity="0.4" d="M9.02526 1.25C9.46972 1.24999 9.84076 1.24999 10.1454 1.27077C10.4625 1.29241 10.762 1.33905 11.0524 1.45933C11.7262 1.73844 12.2616 2.27379 12.5407 2.94762C12.661 3.23801 12.7076 3.53754 12.7292 3.85464C12.75 4.15925 12.75 4.53028 12.75 4.97474V5.02526C12.75 5.46972 12.75 5.84075 12.7292 6.14537C12.7076 6.46247 12.661 6.76199 12.5407 7.05238C12.2616 7.72621 11.7262 8.26156 11.0524 8.54067C10.762 8.66095 10.4625 8.7076 10.1454 8.72923C9.84075 8.75001 9.46972 8.75001 9.02526 8.75H4.97474C4.53028 8.75001 4.15925 8.75001 3.85464 8.72923C3.53754 8.7076 3.23801 8.66095 2.94762 8.54067C2.27379 8.26156 1.73844 7.72621 1.45933 7.05238C1.33905 6.76199 1.29241 6.46247 1.27077 6.14537C1.24999 5.84075 1.24999 5.46972 1.25 5.02526V4.97475C1.24999 4.53029 1.24999 4.15925 1.27077 3.85464C1.29241 3.53754 1.33905 3.23801 1.45933 2.94762C1.73844 2.27379 2.27379 1.73844 2.94762 1.45933C3.23801 1.33905 3.53754 1.29241 3.85464 1.27077C4.15925 1.24999 4.53028 1.24999 4.97474 1.25H9.02526Z" fill="#C3FF19"/>
</svg>
