<svg width="52" height="52" viewBox="0 0 52 52" fill="none" xmlns="http://www.w3.org/2000/svg">
<rect width="52" height="52" rx="26" fill="#5BA7FF" fill-opacity="0.1"/>
<path fill-rule="evenodd" clip-rule="evenodd" d="M31.8333 25.125C28.1285 25.125 25.125 28.1285 25.125 31.8333C25.125 35.5382 28.1285 38.5417 31.8333 38.5417C35.5382 38.5417 38.5417 35.5382 38.5417 31.8333C38.5417 28.1285 35.5382 25.125 31.8333 25.125ZM34.4588 30.9084C34.9143 30.747 35.1529 30.247 34.9915 29.7914C34.8302 29.336 34.3301 29.0974 33.8745 29.2587C33.3121 29.458 32.7899 29.8311 32.3479 30.2187C31.897 30.6142 31.479 31.07 31.1271 31.4919C30.9566 31.6963 30.7991 31.8956 30.6583 32.0806C30.5554 31.9843 30.4522 31.9029 30.3499 31.8347C30.3289 31.8207 30.308 31.8061 30.2867 31.7912C30.1196 31.6749 29.9285 31.5419 29.5 31.5419C29.0168 31.5419 28.625 31.9337 28.625 32.4169C28.625 32.8541 28.9456 33.2164 29.3646 33.2815C29.3688 33.284 29.3737 33.287 29.3793 33.2907C29.4442 33.3341 29.6443 33.4954 29.8841 33.9749C30.0251 34.257 30.307 34.4413 30.6219 34.4574C30.9368 34.4735 31.2362 34.3186 31.4054 34.0525C31.5953 33.7834 32.1553 32.9911 32.4709 32.6128C32.7881 32.2326 33.1422 31.8499 33.5019 31.5344C33.8707 31.211 34.1977 31.0008 34.4588 30.9084Z" fill="#5BA7FF"/>
<path opacity="0.4" d="M25.498 13.4583H25.3363C22.8547 13.4583 20.8823 13.4583 19.3371 13.6549C17.7484 13.857 16.4396 14.2844 15.3985 15.2695C14.3488 16.2628 13.8854 17.5256 13.6677 19.0574C13.4583 20.5314 13.4583 22.408 13.4584 24.7463V24.9228C13.4583 27.261 13.4583 29.1377 13.6677 30.6117C13.8854 32.1435 14.3488 33.4063 15.3985 34.3996C16.315 35.2668 17.44 35.7027 18.7834 35.9323C20.0988 36.1571 21.7219 36.1991 23.7035 36.2083C24.3324 36.2112 24.8447 35.7043 24.8477 35.0759C24.8506 34.4477 24.343 33.936 23.7141 33.9331C21.7126 33.9237 20.2707 33.8781 19.1676 33.6896C18.0924 33.5058 17.4455 33.2024 16.9651 32.7479C16.4303 32.2419 16.1015 31.5483 15.923 30.292C15.7389 28.9963 15.7362 27.2817 15.7362 24.8346C15.7362 24.0885 15.7365 23.4104 15.7421 22.7916H35.0923C35.0949 23.0807 35.0964 23.3831 35.0972 23.6997C35.0986 24.3279 35.6099 24.8361 36.2388 24.8346C36.8679 24.8331 37.3766 24.3225 37.375 23.6942C37.3703 21.6734 37.3406 20.0184 37.1081 18.6877C36.8689 17.3181 36.3976 16.1797 35.4357 15.2695C34.3947 14.2844 33.0859 13.857 31.4971 13.6549C29.952 13.4583 27.9796 13.4583 25.498 13.4583Z" fill="#5BA7FF"/>
<path fill-rule="evenodd" clip-rule="evenodd" d="M18.4166 18.4167C18.4166 17.7723 18.939 17.25 19.5833 17.25H19.5938C20.2381 17.25 20.7604 17.7723 20.7604 18.4167C20.7604 19.061 20.2381 19.5833 19.5938 19.5833H19.5833C18.939 19.5833 18.4166 19.061 18.4166 18.4167Z" fill="#5BA7FF"/>
<path fill-rule="evenodd" clip-rule="evenodd" d="M23.0834 18.4167C23.0834 17.7723 23.6057 17.25 24.25 17.25H24.2605C24.9049 17.25 25.4272 17.7723 25.4272 18.4167C25.4272 19.061 24.9049 19.5833 24.2605 19.5833H24.25C23.6057 19.5833 23.0834 19.061 23.0834 18.4167Z" fill="#5BA7FF"/>
</svg>
