<svg width="20" height="20" viewBox="0 0 20 20" fill="none" xmlns="http://www.w3.org/2000/svg">
<rect width="20" height="20" rx="10" fill="#FF6928" fill-opacity="0.2"/>
<path fill-rule="evenodd" clip-rule="evenodd" d="M10.0286 4.87488C11.124 4.87487 11.9843 4.87487 12.656 4.96517C13.3443 5.05772 13.8904 5.25124 14.3195 5.68033C14.7486 6.10943 14.9422 6.65556 15.0347 7.34389C15.125 8.01559 15.125 8.87593 15.125 9.97128V10.0285C15.125 11.1238 15.125 11.9842 15.0347 12.6559C14.9422 13.3442 14.7486 13.8903 14.3195 14.3194C13.8904 14.7485 13.3443 14.942 12.656 15.0346C11.9843 15.1249 11.124 15.1249 10.0286 15.1249H9.9714C8.87605 15.1249 8.01572 15.1249 7.34401 15.0346C6.65569 14.942 6.10956 14.7485 5.68046 14.3194C5.25136 13.8903 5.05784 13.3442 4.9653 12.6559C4.87499 11.9842 4.875 11.1238 4.875 10.0285V9.97128C4.875 8.87594 4.87499 8.0156 4.9653 7.34389C5.05784 6.65556 5.25136 6.10943 5.68046 5.68033C6.10956 5.25124 6.65569 5.05772 7.34401 4.96517C8.01572 4.87487 8.87606 4.87487 9.9714 4.87488H10.0286ZM9.5 12.2499C9.5 11.9737 9.72285 11.7499 9.99775 11.7499H10.0023C10.2772 11.7499 10.5 11.9737 10.5 12.2499C10.5 12.526 10.2772 12.7499 10.0023 12.7499H9.99775C9.72285 12.7499 9.5 12.526 9.5 12.2499ZM9.50005 10.2499C9.50005 10.526 9.7239 10.7499 10.0001 10.7499C10.2762 10.7499 10.5001 10.526 10.5001 10.2499V8.24988C10.5001 7.97374 10.2762 7.74988 10.0001 7.74988C9.7239 7.74988 9.50005 7.97374 9.50005 8.24988V10.2499Z" fill="#FF6928"/>
</svg>
