<svg width="24" height="24" viewBox="0 0 24 24" fill="none" xmlns="http://www.w3.org/2000/svg">
<path opacity="0.4" d="M10.1724 1.40483C10.7669 1.30298 11.3775 1.25 11.9999 1.25C15.3801 1.25 18.3963 2.81097 20.3657 5.24849C20.5374 5.46093 20.58 5.74988 20.4769 6.00281C20.3739 6.25574 20.1415 6.43266 19.8703 6.46468C19.1028 6.55526 18.2377 6.87675 17.6315 7.66148C16.8187 8.71346 15.9471 9.36062 15.063 9.62078C14.1618 9.88596 13.3114 9.72818 12.6319 9.28843C11.6258 8.63728 11.4958 7.72722 11.4107 7.13129C11.3644 6.81991 11.3081 6.52842 11.2244 6.37357C11.1546 6.24455 11.0279 6.09006 10.7127 5.93705C9.92015 5.55237 9.471 4.84887 9.31521 4.09096C9.1621 3.34613 9.28442 2.5351 9.62111 1.82335C9.72567 1.60231 9.93142 1.44612 10.1724 1.40483Z" fill="white"/>
<path opacity="0.4" d="M1.7638 10.344C2.02294 10.239 2.319 10.2868 2.53187 10.4681C3.21164 11.0471 4.09563 11.5181 5.08874 11.5181C5.75485 11.5181 6.32888 11.5492 6.81102 11.6396C7.29426 11.7301 7.73816 11.8894 8.09861 12.1845C8.84883 12.7989 8.95837 13.7614 8.95837 14.7517C8.95837 15.7706 8.9604 16.1997 9.01512 16.5656C9.06753 16.9161 9.16946 17.2165 9.43644 17.9817C9.59057 18.4234 9.80455 19.0505 9.79233 19.7265C9.77927 20.4492 9.51156 21.1855 8.80931 21.8406C8.59704 22.0386 8.28956 22.0963 8.01992 21.9888C4.05446 20.4075 1.25 16.5321 1.25 11.9999C1.25 11.652 1.26655 11.3077 1.29895 10.9679C1.32548 10.6895 1.50467 10.4491 1.7638 10.344Z" fill="white"/>
<path d="M11.0243 20.7419C6.62586 20.2565 3.20455 16.5278 3.20455 12C3.20455 7.1424 7.1424 3.20454 12 3.20454C16.5278 3.20454 20.2565 6.62586 20.7419 11.0243C20.8012 11.5608 21.233 12 21.7727 12C22.3125 12 22.7546 11.561 22.7062 11.0235C22.2128 5.54403 17.6079 1.25 12 1.25C6.06294 1.25 1.25 6.06294 1.25 12C1.25 17.6079 5.54403 22.2128 11.0235 22.7062C11.561 22.7546 12 22.3125 12 21.7727C12 21.233 11.5608 20.8012 11.0243 20.7419Z" fill="white"/>
<path fill-rule="evenodd" clip-rule="evenodd" d="M12.75 17.2765C12.75 14.7766 14.7766 12.75 17.2765 12.75C19.7765 12.75 21.8031 14.7766 21.8031 17.2765C21.8031 18.1656 21.5468 18.9947 21.104 19.6942L22.456 21.0418C22.8471 21.4317 22.8481 22.0648 22.4582 22.456C22.0683 22.8471 21.4352 22.8481 21.044 22.4582L19.6888 21.1074C18.9905 21.5481 18.1633 21.8031 17.2765 21.8031C14.7766 21.8031 12.75 19.7765 12.75 17.2765ZM17.2765 14.75C15.8812 14.75 14.75 15.8812 14.75 17.2765C14.75 18.6719 15.8812 19.8031 17.2765 19.8031C18.6719 19.8031 19.8031 18.6719 19.8031 17.2765C19.8031 15.8812 18.6719 14.75 17.2765 14.75Z" fill="white"/>
</svg>
