<svg width="52" height="52" viewBox="0 0 52 52" fill="none" xmlns="http://www.w3.org/2000/svg">
<rect width="52" height="52" rx="26" fill="#FF6928" fill-opacity="0.1"/>
<path fill-rule="evenodd" clip-rule="evenodd" d="M26.0668 14.0417C28.6226 14.0417 30.6301 14.0417 32.1974 14.2524C33.8034 14.4683 35.0777 14.9199 36.079 15.9211C37.0802 16.9223 37.5317 18.1966 37.7477 19.8027C37.9584 21.37 37.9584 23.3775 37.9584 25.9333V26.0668C37.9584 28.6226 37.9584 30.6301 37.7477 32.1974C37.5317 33.8034 37.0802 35.0777 36.079 36.079C35.0777 37.0802 33.8034 37.5317 32.1974 37.7477C30.6301 37.9584 28.6226 37.9584 26.0668 37.9584H25.9333C23.3775 37.9584 21.37 37.9584 19.8027 37.7477C18.1966 37.5317 16.9223 37.0802 15.9211 36.079C14.9199 35.0777 14.4683 33.8034 14.2524 32.1974C14.0417 30.6301 14.0417 28.6226 14.0417 26.0668V25.9333C14.0417 23.3775 14.0417 21.37 14.2524 19.8027C14.4683 18.1966 14.9199 16.9223 15.9211 15.9211C16.9223 14.9199 18.1966 14.4683 19.8027 14.2524C21.37 14.0417 23.3775 14.0417 25.9333 14.0417H26.0668ZM24.8334 31.25C24.8334 30.6057 25.3533 30.0834 25.9948 30.0834H26.0053C26.6467 30.0834 27.1667 30.6057 27.1667 31.25C27.1667 31.8944 26.6467 32.4167 26.0053 32.4167H25.9948C25.3533 32.4167 24.8334 31.8944 24.8334 31.25ZM24.8335 26.5834C24.8335 27.2277 25.3558 27.75 26.0001 27.75C26.6445 27.75 27.1668 27.2277 27.1668 26.5834V21.9167C27.1668 21.2724 26.6445 20.75 26.0001 20.75C25.3558 20.75 24.8335 21.2724 24.8335 21.9167V26.5834Z" fill="#FF6928"/>
</svg>
