<svg width="138" height="138" viewBox="0 0 138 138" fill="none" xmlns="http://www.w3.org/2000/svg">
<path d="M65.9841 131C100.477 131 128.439 103.018 128.439 68.5C128.439 33.9822 100.477 6 65.9841 6C31.4911 6 3.52905 33.9822 3.52905 68.5C3.52905 103.018 31.4911 131 65.9841 131Z" fill="black" stroke="#0E0E0D" stroke-width="2" stroke-miterlimit="10"/>
<path d="M133.796 101.474L74.7173 135.569C71.7676 137.304 67.3432 137.477 64.8273 136.002L3.92628 100.78C1.41043 99.3055 1.67069 96.7897 4.62031 95.0546L63.6996 60.9604C66.6492 59.2253 71.0736 59.0518 73.5895 60.5266L134.491 95.7486C137.006 97.2234 136.746 99.7393 133.796 101.474Z" fill="#0E0E0D" stroke="#687C2D" stroke-width="2" stroke-miterlimit="10"/>
<path d="M65.1046 89.4591L34.654 106.983C33.5262 107.677 31.7912 107.764 30.7501 107.157L15.5682 98.3947C14.5272 97.7874 14.7007 96.8331 15.8285 96.1391L46.279 78.5281C47.4068 77.8341 49.1419 77.7473 50.1829 78.3546L65.3648 87.1167C66.4059 87.724 66.2324 88.765 65.1046 89.4591Z" fill="black"/>
<path d="M101.281 110.887L70.8305 128.411C69.7027 129.106 67.9676 129.192 66.9266 128.585L37.6011 112.074C36.56 111.467 36.7335 110.513 37.8613 109.819L68.3119 92.2075C69.4397 91.5135 71.1747 91.4268 72.2158 92.034L101.541 108.545C102.582 109.152 102.409 110.193 101.281 110.887Z" fill="black"/>
<path opacity="0.3" d="M74.7175 130.363L133.797 96.2693C133.812 96.2601 133.828 96.251 133.843 96.2418L73.5897 61.3943C71.0738 59.9195 66.6494 60.093 63.6998 61.8281L4.62054 95.9223C4.60498 95.9314 4.5895 95.9406 4.5741 95.9498L64.8276 130.797C67.3434 132.272 71.7679 132.099 74.7175 130.363Z" fill="black"/>
<path d="M133.796 82.3887L74.7173 116.483C71.7676 118.218 67.3432 118.391 64.8273 116.917L3.92628 81.6946C1.41043 80.2198 1.67069 77.704 4.62031 75.9689L63.6996 41.8747C66.6492 40.1396 71.0736 39.9661 73.5895 41.4409L134.491 76.6629C137.006 78.1377 136.746 80.6536 133.796 82.3887Z" fill="#0E0E0D" stroke="#687C2D" stroke-width="2" stroke-miterlimit="10"/>
<path d="M28.0439 73.5399L17.3732 79.6994C16.5057 80.1332 15.2043 80.1332 14.3368 79.6994C13.4693 79.2656 13.4693 78.4849 14.3368 77.9643L25.0075 71.8048C25.875 71.3711 27.1763 71.3711 28.0439 71.8048C28.9114 72.2386 28.8247 73.0194 28.0439 73.5399Z" fill="white"/>
<path d="M38.8018 79.3524L28.2178 85.4252C27.5238 85.7722 26.3092 85.7722 25.7887 85.4252C25.0947 85.0782 25.0947 84.3841 25.7887 84.0371L36.3727 77.9644C37.0667 77.6173 38.2812 77.6173 38.8018 77.9644C39.4958 78.3114 39.409 78.9187 38.8018 79.3524Z" fill="#787E5D"/>
<path d="M55.198 92.1052L47.4769 96.5297C46.8696 96.8767 45.6551 96.7899 45.1345 96.5297C44.4405 96.1826 44.4405 95.4886 45.1345 95.1416L52.8556 90.7172C53.4629 90.3701 54.6774 90.4569 55.198 90.7172C55.545 91.0642 55.7185 91.7582 55.198 92.1052Z" fill="#787E5D"/>
<path d="M100.83 65.732L89.9863 71.9783C89.2923 72.4121 88.0777 72.3253 87.5572 71.9783C86.8632 71.6313 86.9499 70.9373 87.5572 70.5902L98.4014 64.344C99.0954 63.9102 100.31 63.997 100.83 64.344C101.351 64.691 101.438 65.385 100.83 65.732Z" fill="#787E5D"/>
<path d="M83.9138 75.5353L61.1843 88.6351C60.4903 89.0688 59.2758 88.9821 58.7552 88.6351C58.0612 88.2881 58.148 87.594 58.842 87.247L81.5714 74.1472C82.2655 73.7134 83.48 73.8002 84.0006 74.1472C84.4343 74.4942 84.5211 75.1883 83.9138 75.5353Z" fill="#787E5D"/>
<path d="M72.1152 89.5025L58.0611 97.5706C57.3671 98.0044 56.1525 97.9177 55.632 97.5706C54.938 97.2236 55.0247 96.5296 55.7188 96.1826L69.7729 88.1145C70.4669 87.6807 71.6814 87.7675 72.2019 88.1145C72.7225 88.5483 72.7225 89.1555 72.1152 89.5025Z" fill="#787E5D"/>
<path d="M85.1282 81.955L77.4939 86.3794C76.7998 86.7264 75.5853 86.7264 75.0648 86.3794C74.3707 86.0324 74.4575 85.3384 75.0648 84.9913L82.6991 80.5669C83.3931 80.2199 84.6077 80.2199 85.1282 80.5669C85.7355 81.0007 85.6487 81.6947 85.1282 81.955Z" fill="#787E5D"/>
<path d="M76.7998 94.7079L60.5769 104.077C59.8828 104.511 58.6683 104.424 58.1478 104.077C57.4537 103.73 57.5405 103.036 58.2345 102.689L74.4574 93.3198C75.1515 92.886 76.366 92.9728 76.8865 93.3198C77.4938 93.6668 77.5806 94.1873 76.7998 94.7079Z" fill="#787E5D"/>
<path d="M88.3379 88.0277L82.0916 91.5846C81.3976 91.9316 80.1831 91.9316 79.6625 91.5846C78.9685 91.2376 79.0553 90.5436 79.6625 90.1966L85.9088 86.6397C86.6028 86.2926 87.8174 86.2926 88.3379 86.6397C89.0319 86.9867 89.1187 87.5072 88.3379 88.0277Z" fill="#787E5D"/>
<path d="M73.59 103.643L66.7365 107.634C66.0424 108.068 64.8279 107.981 64.3074 107.634C63.6133 107.287 63.7001 106.593 64.3941 106.246L71.2477 102.255C71.9417 101.822 73.1562 101.908 73.6768 102.255C74.3708 102.602 74.4575 103.21 73.59 103.643Z" fill="#787E5D"/>
<path d="M79.4893 100.26L78.188 101.041C77.5807 101.388 76.3662 101.301 75.8456 101.041C75.1516 100.694 75.1516 100.086 75.7589 99.6527L77.0602 98.8719C77.6675 98.5249 78.882 98.6117 79.4025 98.8719C80.0966 99.3057 80.0966 99.913 79.4893 100.26Z" fill="#787E5D"/>
<path d="M44.0069 91.3243L41.1441 92.9726C40.5368 93.3196 39.409 93.2329 38.8885 92.8859C38.1944 92.5389 38.1944 91.9316 38.8017 91.5846L41.6646 89.9362C42.2719 89.5892 43.3997 89.676 43.9202 90.023C44.5275 90.4568 44.6142 91.064 44.0069 91.3243Z" fill="#787E5D"/>
<path d="M69.0786 76.9233L51.3809 87.0735C50.6869 87.5072 49.4723 87.4205 48.9518 87.0735C48.2578 86.7265 48.3445 86.0324 48.9518 85.6854L66.6495 75.4485C67.3436 75.0147 68.5581 75.1015 69.0786 75.4485C69.7727 75.8822 69.7727 76.4895 69.0786 76.9233Z" fill="#787E5D"/>
<path d="M50.6869 79.6127L34.4639 88.9821C33.7699 89.4158 32.5554 89.3291 32.0348 88.9821C31.3408 88.635 31.4276 87.941 32.1216 87.594L48.2578 78.2246C48.9518 77.7908 50.1663 77.8776 50.6869 78.2246C51.4677 78.5716 51.5544 79.1789 50.6869 79.6127Z" fill="#787E5D"/>
<path d="M72.2885 67.12L56.1524 76.4894C55.4583 76.9231 54.2438 76.8364 53.7233 76.4894C53.0292 76.1424 53.116 75.4483 53.81 75.1013L70.0329 65.7319C70.727 65.2982 71.9415 65.3849 72.462 65.7319C73.0693 66.0789 73.1561 66.6862 72.2885 67.12Z" fill="#787E5D"/>
<path d="M83.9138 60.4401L77.6676 63.997C76.9735 64.344 75.759 64.344 75.2385 63.997C74.5444 63.65 74.6312 62.9559 75.2385 62.6089L81.4847 59.052C82.1788 58.705 83.3933 58.705 83.9138 59.052C84.6079 59.4858 84.6946 60.0063 83.9138 60.4401Z" fill="#787E5D"/>
<path opacity="0.3" d="M123.124 70.9564L74.3004 99.132C71.3508 100.867 66.9264 101.041 64.4105 99.5658L14.8762 70.9177L63.6996 42.7421C66.6492 41.0071 71.0736 40.8336 73.5895 42.3084L123.124 70.9564Z" fill="black"/>
<path d="M133.38 42.9453L74.3004 77.0395C71.3508 78.7746 66.9263 78.9481 64.4105 77.4733L3.50941 42.2513C0.993558 40.7765 1.25382 38.2606 4.20344 36.5255L63.2827 2.43135C66.2323 0.69628 70.6567 0.522773 73.1726 1.99758L134.074 37.2196C136.59 38.6944 136.329 41.2102 133.38 42.9453Z" fill="#0E0E0D" stroke="#687C2D" stroke-width="2" stroke-miterlimit="10"/>
<path d="M27.8868 34.2699L17.2161 40.4294C16.3485 40.8632 15.0472 40.8632 14.1797 40.4294C13.3122 39.9956 13.3122 39.2148 14.1797 38.6943L24.8504 32.5348C25.7179 32.101 27.0192 32.101 27.8868 32.5348C28.7543 32.9686 28.7543 33.8361 27.8868 34.2699Z" fill="white"/>
<path d="M47.6671 30.019L23.4628 43.9863C22.9423 44.2466 22.0747 44.2466 21.5542 43.9863C21.0337 43.726 21.0337 43.2055 21.5542 42.9452L45.7585 28.9779C46.279 28.7176 47.1465 28.7176 47.6671 28.9779C48.1876 29.2382 48.1876 29.7587 47.6671 30.019Z" fill="#787E5D"/>
<path d="M78.8982 62.5518L67.707 68.9716C66.6659 69.5789 65.0176 69.6656 64.0633 69.1451L29.7956 49.3653C28.8413 48.8448 29.0148 47.8905 30.0559 47.2832L41.2471 40.8634C42.2881 40.2562 43.9365 40.1694 44.8908 40.6899L79.1584 60.4698C80.026 60.9903 79.9392 61.9446 78.8982 62.5518Z" fill="#687C2D"/>
<path d="M99.8055 28.8045L69.355 46.3288C68.2272 47.0228 66.4921 47.1095 65.4511 46.5023L50.2692 37.7401C49.2281 37.1329 49.4016 36.1786 50.5294 35.4845L80.98 17.8736C82.1078 17.1795 83.8428 17.0928 84.8839 17.7001L100.066 26.4622C101.107 27.0694 100.933 28.1105 99.8055 28.8045Z" fill="#687C2D"/>
<path d="M99.1986 50.8401L87.2266 57.7804C86.6194 58.1274 85.6651 58.2142 85.0578 57.8671L73.4328 51.1871C72.9123 50.8401 72.9123 50.3196 73.6063 49.9726L85.5783 43.0323C86.1856 42.6853 87.1399 42.5985 87.7472 42.9455L99.3721 49.6255C99.8927 49.9726 99.8059 50.4931 99.1986 50.8401Z" fill="#687C2D"/>
<path d="M119.412 39.2151L107.44 46.1554C106.833 46.5024 105.878 46.5892 105.271 46.2421L93.6462 39.5621C93.1257 39.2151 93.1257 38.6946 93.8197 38.3476L105.792 31.4073C106.399 31.0603 107.353 30.9735 107.961 31.3205L119.586 38.0005C120.106 38.2608 120.019 38.8681 119.412 39.2151Z" fill="#687C2D"/>
</svg>
