<svg width="24" height="24" viewBox="0 0 24 24" fill="none" xmlns="http://www.w3.org/2000/svg">
<path fill-rule="evenodd" clip-rule="evenodd" d="M17.5 12.25C14.6005 12.25 12.25 14.6005 12.25 17.5C12.25 20.3995 14.6005 22.75 17.5 22.75C20.3995 22.75 22.75 20.3995 22.75 17.5C22.75 14.6005 20.3995 12.25 17.5 12.25ZM18.25 15.6992C18.25 15.285 17.9142 14.9492 17.5 14.9492C17.0858 14.9492 16.75 15.285 16.75 15.6992V17.9492C16.75 18.2 16.8753 18.4342 17.084 18.5733L18.434 19.4733C18.7786 19.703 19.2443 19.6099 19.474 19.2652C19.7038 18.9206 19.6107 18.4549 19.266 18.2252L18.25 17.5478V15.6992Z" fill="#DDDDDD"/>
<path opacity="0.4" d="M13.4653 4.75H9.54836C7.80421 4.74998 6.41746 4.74997 5.33103 4.89881C4.20972 5.05243 3.29737 5.37711 2.5785 6.10965C1.86155 6.84022 1.54553 7.76413 1.39567 8.89997C1.24997 10.0042 1.24999 11.5256 1.25 13.3053C1.24999 15.0851 1.24997 16.4958 1.39567 17.6C1.54553 18.7359 1.86155 19.6598 2.5785 20.3904C3.29737 21.1229 4.20972 21.4476 5.33103 21.6012C6.41745 21.75 7.80415 21.75 9.54827 21.75H12.2557C11.3142 20.5897 10.75 19.1107 10.75 17.5C10.75 13.7721 13.7721 10.75 17.5 10.75C19.1107 10.75 20.5897 11.3142 21.75 12.2557V10.9923L21.7498 10.9845C21.705 8.80913 21.5271 7.22233 20.4352 6.10965C19.7163 5.37711 18.8039 5.05243 17.6826 4.89881C16.5962 4.74997 15.2095 4.74998 13.4653 4.75Z" fill="#DDDDDD"/>
<path d="M13.4896 1.30636C12.9893 1.24994 12.2026 1.24997 11.5006 1.25C10.7986 1.24997 10.0119 1.24994 9.51156 1.30636C8.97215 1.36718 8.46296 1.50167 7.9999 1.8313C7.53975 2.15886 7.25542 2.58653 7.03115 3.06267C6.82087 3.50911 6.62996 4.07485 6.40699 4.73558L6.38477 4.80145C6.98672 4.76671 7.6599 4.75542 8.41038 4.75176C8.54926 4.35488 8.67729 4.00985 8.77292 3.80681C8.92551 3.48287 9.04052 3.36036 9.14281 3.28755C9.24218 3.21681 9.38775 3.15111 9.73601 3.11184C10.1109 3.06957 10.7308 3.06809 11.5006 3.06809C12.2705 3.06809 12.8904 3.06957 13.2652 3.11184C13.6135 3.15111 13.759 3.21681 13.8584 3.28755C13.9607 3.36036 14.0757 3.48287 14.2283 3.80681C14.3239 4.00984 14.4519 4.35484 14.5908 4.75169C15.341 4.75526 16.0141 4.76632 16.6162 4.80065L16.5942 4.73559C16.3713 4.07486 16.1803 3.50911 15.9701 3.06267C15.7458 2.58653 15.4615 2.15886 15.0013 1.8313C14.5382 1.50167 14.0291 1.36718 13.4896 1.30636Z" fill="#DDDDDD"/>
</svg>
