<svg width="16" height="16" viewBox="0 0 16 16" fill="none" xmlns="http://www.w3.org/2000/svg">
<g id="vuesax/outline/calendar">
<g id="calendar">
<path id="Vector" d="M5.33334 3.83333C5.06001 3.83333 4.83334 3.60666 4.83334 3.33333V1.33333C4.83334 1.05999 5.06001 0.833328 5.33334 0.833328C5.60668 0.833328 5.83334 1.05999 5.83334 1.33333V3.33333C5.83334 3.60666 5.60668 3.83333 5.33334 3.83333Z" fill="#71717A"/>
<path id="Vector_2" d="M10.6667 3.83333C10.3934 3.83333 10.1667 3.60666 10.1667 3.33333V1.33333C10.1667 1.05999 10.3934 0.833328 10.6667 0.833328C10.94 0.833328 11.1667 1.05999 11.1667 1.33333V3.33333C11.1667 3.60666 10.94 3.83333 10.6667 3.83333Z" fill="#71717A"/>
<path id="Vector_3" d="M5.66667 9.66667C5.58 9.66667 5.49333 9.64668 5.41333 9.61335C5.32667 9.58001 5.26 9.53333 5.19333 9.47333C5.07333 9.34667 5 9.18 5 9C5 8.91334 5.02 8.82667 5.05333 8.74667C5.08667 8.66667 5.13333 8.59334 5.19333 8.52668C5.26 8.46668 5.32667 8.42 5.41333 8.38666C5.65333 8.28666 5.95333 8.34001 6.14 8.52668C6.26 8.65334 6.33333 8.82667 6.33333 9C6.33333 9.04 6.32667 9.08668 6.32 9.13335C6.31333 9.17335 6.3 9.21334 6.28 9.25334C6.26667 9.29334 6.24667 9.33334 6.22 9.37334C6.2 9.40667 6.16667 9.44 6.14 9.47333C6.01333 9.59333 5.84 9.66667 5.66667 9.66667Z" fill="#71717A"/>
<path id="Vector_4" d="M8.00001 9.66666C7.91334 9.66666 7.82668 9.64667 7.74668 9.61333C7.66001 9.58 7.59334 9.53332 7.52668 9.47332C7.40668 9.34665 7.33334 9.17999 7.33334 8.99999C7.33334 8.91333 7.35334 8.82666 7.38668 8.74666C7.42001 8.66666 7.46668 8.59333 7.52668 8.52666C7.59334 8.46666 7.66001 8.41998 7.74668 8.38665C7.98668 8.27998 8.28668 8.34 8.47334 8.52666C8.59334 8.65333 8.66668 8.82666 8.66668 8.99999C8.66668 9.03999 8.66001 9.08667 8.65334 9.13333C8.64668 9.17333 8.63334 9.21333 8.61334 9.25333C8.60001 9.29333 8.58001 9.33332 8.55334 9.37332C8.53334 9.40666 8.50001 9.43999 8.47334 9.47332C8.34668 9.59332 8.17334 9.66666 8.00001 9.66666Z" fill="#71717A"/>
<path id="Vector_5" d="M10.3334 9.66666C10.2467 9.66666 10.16 9.64667 10.08 9.61333C9.99335 9.58 9.92669 9.53332 9.86002 9.47332C9.83335 9.43999 9.80669 9.40666 9.78002 9.37332C9.75335 9.33332 9.73335 9.29333 9.72002 9.25333C9.70002 9.21333 9.68669 9.17333 9.68002 9.13333C9.67335 9.08667 9.66669 9.03999 9.66669 8.99999C9.66669 8.82666 9.74002 8.65333 9.86002 8.52666C9.92669 8.46666 9.99335 8.41998 10.08 8.38665C10.3267 8.27998 10.62 8.34 10.8067 8.52666C10.9267 8.65333 11 8.82666 11 8.99999C11 9.03999 10.9934 9.08667 10.9867 9.13333C10.98 9.17333 10.9667 9.21333 10.9467 9.25333C10.9334 9.29333 10.9134 9.33332 10.8867 9.37332C10.8667 9.40666 10.8334 9.43999 10.8067 9.47332C10.68 9.59332 10.5067 9.66666 10.3334 9.66666Z" fill="#71717A"/>
<path id="Vector_6" d="M5.66667 12C5.58 12 5.49333 11.98 5.41333 11.9467C5.33333 11.9133 5.26 11.8667 5.19333 11.8067C5.07333 11.68 5 11.5067 5 11.3333C5 11.2467 5.02 11.16 5.05333 11.08C5.08667 10.9933 5.13333 10.92 5.19333 10.86C5.44 10.6133 5.89333 10.6133 6.14 10.86C6.26 10.9867 6.33333 11.16 6.33333 11.3333C6.33333 11.5067 6.26 11.68 6.14 11.8067C6.01333 11.9267 5.84 12 5.66667 12Z" fill="#71717A"/>
<path id="Vector_7" d="M8.00001 12C7.82668 12 7.65334 11.9267 7.52668 11.8067C7.40668 11.68 7.33334 11.5067 7.33334 11.3333C7.33334 11.2467 7.35334 11.16 7.38668 11.08C7.42001 10.9933 7.46668 10.92 7.52668 10.86C7.77334 10.6133 8.22668 10.6133 8.47334 10.86C8.53334 10.92 8.58001 10.9933 8.61334 11.08C8.64668 11.16 8.66668 11.2467 8.66668 11.3333C8.66668 11.5067 8.59334 11.68 8.47334 11.8067C8.34668 11.9267 8.17334 12 8.00001 12Z" fill="#71717A"/>
<path id="Vector_8" d="M10.3334 12C10.16 12 9.98669 11.9267 9.86002 11.8067C9.80002 11.7467 9.75335 11.6734 9.72002 11.5867C9.68669 11.5067 9.66669 11.42 9.66669 11.3334C9.66669 11.2467 9.68669 11.16 9.72002 11.08C9.75335 10.9933 9.80002 10.92 9.86002 10.86C10.0134 10.7067 10.2467 10.6333 10.46 10.68C10.5067 10.6867 10.5467 10.7 10.5867 10.72C10.6267 10.7333 10.6667 10.7534 10.7067 10.78C10.74 10.8 10.7734 10.8334 10.8067 10.86C10.9267 10.9867 11 11.16 11 11.3334C11 11.5067 10.9267 11.68 10.8067 11.8067C10.68 11.9267 10.5067 12 10.3334 12Z" fill="#71717A"/>
<path id="Vector_9" d="M13.6667 6.55998H2.33334C2.06001 6.55998 1.83334 6.33332 1.83334 6.05998C1.83334 5.78665 2.06001 5.55998 2.33334 5.55998H13.6667C13.94 5.55998 14.1667 5.78665 14.1667 6.05998C14.1667 6.33332 13.94 6.55998 13.6667 6.55998Z" fill="#71717A"/>
<path id="Vector_10" d="M10.6667 15.1667H5.33333C2.9 15.1667 1.5 13.7667 1.5 11.3333V5.66666C1.5 3.23333 2.9 1.83333 5.33333 1.83333H10.6667C13.1 1.83333 14.5 3.23333 14.5 5.66666V11.3333C14.5 13.7667 13.1 15.1667 10.6667 15.1667ZM5.33333 2.83333C3.42667 2.83333 2.5 3.75999 2.5 5.66666V11.3333C2.5 13.24 3.42667 14.1667 5.33333 14.1667H10.6667C12.5733 14.1667 13.5 13.24 13.5 11.3333V5.66666C13.5 3.75999 12.5733 2.83333 10.6667 2.83333H5.33333Z" fill="#71717A"/>
</g>
</g>
</svg>
