<svg width="18" height="18" viewBox="0 0 18 18" fill="none" xmlns="http://www.w3.org/2000/svg">
<path fill-rule="evenodd" clip-rule="evenodd" d="M7.63502 0.679205C8.52202 0.384764 9.47802 0.384764 10.365 0.679205C11.2484 0.97243 11.942 1.66788 12.6388 2.645C13.3333 3.61887 14.1007 4.97676 15.0899 6.72712L15.1287 6.79584C16.1181 8.54646 16.8854 9.90429 17.3637 11.0055C17.8442 12.112 18.0835 13.0673 17.8926 13.9851C17.7003 14.9093 17.2262 15.7496 16.5357 16.3848C15.8469 17.0184 14.9089 17.2857 13.728 17.414C12.5538 17.5417 11.0177 17.5417 9.04069 17.5417H8.95944C6.98237 17.5417 5.4463 17.5417 4.27204 17.414C3.09108 17.2857 2.15318 17.0184 1.46437 16.3848C0.773871 15.7496 0.299754 14.9093 0.107479 13.9851C-0.083479 13.0673 0.155854 12.112 0.636396 11.0055C1.11462 9.90429 1.88198 8.54646 2.87134 6.79583L2.91017 6.72712C3.89936 4.97676 4.66675 3.61887 5.36125 2.645C6.05805 1.66788 6.75164 0.97243 7.63502 0.679205ZM8.16669 13.1667C8.16669 12.7065 8.5381 12.3334 8.99627 12.3334H9.00377C9.46194 12.3334 9.83335 12.7065 9.83335 13.1667C9.83335 13.627 9.46194 14 9.00377 14H8.99627C8.5381 14 8.16669 13.627 8.16669 13.1667ZM8.16669 9.83337C8.16669 10.2936 8.53977 10.6667 9.00002 10.6667C9.46027 10.6667 9.83335 10.2936 9.83335 9.83337V6.50004C9.83335 6.03981 9.46027 5.66671 9.00002 5.66671C8.53977 5.66671 8.16669 6.03981 8.16669 6.50004V9.83337Z" fill="#E89B05"/>
</svg>
