<svg width="18" height="18" viewBox="0 0 18 18" fill="none" xmlns="http://www.w3.org/2000/svg">
<g id="vuesax/outline/money-recive">
<g id="money-recive">
<path id="Vector" d="M9.78749 12.1875H8.37751C7.38001 12.1875 6.5625 11.3475 6.5625 10.3125C6.5625 10.005 6.8175 9.74999 7.125 9.74999C7.4325 9.74999 7.6875 10.005 7.6875 10.3125C7.6875 10.725 7.99501 11.0625 8.37751 11.0625H9.78749C10.08 11.0625 10.3125 10.8 10.3125 10.4775C10.3125 10.0725 10.2 10.0125 9.94501 9.92248L7.6875 9.13498C7.2075 8.96998 6.5625 8.61749 6.5625 7.51499C6.5625 6.57749 7.30501 5.80499 8.21251 5.80499H9.62249C10.62 5.80499 11.4375 6.64499 11.4375 7.67999C11.4375 7.98749 11.1825 8.24249 10.875 8.24249C10.5675 8.24249 10.3125 7.98749 10.3125 7.67999C10.3125 7.26749 10.005 6.92999 9.62249 6.92999H8.21251C7.92001 6.92999 7.6875 7.19249 7.6875 7.51499C7.6875 7.91999 7.79999 7.97998 8.05499 8.06998L10.3125 8.85749C10.7925 9.02249 11.4375 9.37499 11.4375 10.4775C11.4375 11.4225 10.695 12.1875 9.78749 12.1875Z" fill="#2EE48D"/>
<path id="Vector_2" d="M9 12.9375C8.6925 12.9375 8.4375 12.6825 8.4375 12.375V5.625C8.4375 5.3175 8.6925 5.0625 9 5.0625C9.3075 5.0625 9.5625 5.3175 9.5625 5.625V12.375C9.5625 12.6825 9.3075 12.9375 9 12.9375Z" fill="#2EE48D"/>
<path id="Vector_3" d="M9 17.0625C4.5525 17.0625 0.9375 13.4475 0.9375 9C0.9375 4.5525 4.5525 0.9375 9 0.9375C9.3075 0.9375 9.5625 1.1925 9.5625 1.5C9.5625 1.8075 9.3075 2.0625 9 2.0625C5.175 2.0625 2.0625 5.175 2.0625 9C2.0625 12.825 5.175 15.9375 9 15.9375C12.825 15.9375 15.9375 12.825 15.9375 9C15.9375 8.6925 16.1925 8.4375 16.5 8.4375C16.8075 8.4375 17.0625 8.6925 17.0625 9C17.0625 13.4475 13.4475 17.0625 9 17.0625Z" fill="#2EE48D"/>
<path id="Vector_4" d="M15.75 5.8125H12.75C12.4425 5.8125 12.1875 5.5575 12.1875 5.25V2.25C12.1875 1.9425 12.4425 1.6875 12.75 1.6875C13.0575 1.6875 13.3125 1.9425 13.3125 2.25V4.6875H15.75C16.0575 4.6875 16.3125 4.9425 16.3125 5.25C16.3125 5.5575 16.0575 5.8125 15.75 5.8125Z" fill="#2EE48D"/>
<path id="Vector_5" d="M12.75 5.8125C12.6075 5.8125 12.465 5.76 12.3525 5.6475C12.135 5.43 12.135 5.07 12.3525 4.8525L16.1025 1.1025C16.32 0.885002 16.68 0.885002 16.8975 1.1025C17.115 1.32 17.115 1.68 16.8975 1.8975L13.1475 5.6475C13.035 5.76 12.8925 5.8125 12.75 5.8125Z" fill="#2EE48D"/>
</g>
</g>
</svg>
