<svg width="156" height="147" viewBox="0 0 156 147" fill="none" xmlns="http://www.w3.org/2000/svg">
<g filter="url(#filter0_d_95_3531)">
<path d="M114.99 16.1633L133.29 44.2633L133.59 44.5633L77.7898 113.263L22.2898 44.5633L22.7898 44.2633L40.7898 16.1633H114.99Z" fill="#232321"/>
</g>
<path d="M96.9898 44.2633L77.7898 113.263L59.7898 44.2633L77.7898 16.1633L96.9898 44.2633Z" fill="#383835"/>
<path d="M133.49 44.5633L77.7898 113.263L96.9898 44.2633L114.99 16.1633L133.49 44.5633Z" fill="#4C4D46"/>
<path d="M22.7898 44.2633L40.7898 16.1633L59.7898 44.2633H22.7898Z" fill="#191918"/>
<path d="M54.8897 37.1632L59.7897 35.6632C60.1897 35.5632 60.1897 35.0632 59.7897 34.9632L54.8897 33.4632C54.7897 33.4632 54.6897 33.3632 54.5897 33.1632L53.1897 28.3632C53.0897 27.9632 52.5897 27.9632 52.4897 28.3632L50.9897 33.2632C50.9897 33.3632 50.8897 33.4632 50.6897 33.5632L45.7897 35.0632C45.3897 35.1632 45.3897 35.6632 45.7897 35.7632L50.6897 37.2632C50.7897 37.2632 50.8897 37.3632 50.9897 37.5632L52.4897 42.4632C52.5897 42.8632 53.0897 42.8632 53.1897 42.4632L54.6897 37.5632C54.6897 37.2632 54.7897 37.1632 54.8897 37.1632Z" fill="#C3FF19"/>
<path d="M20.2896 55.7632L23.6896 52.9632C23.8896 52.7632 23.7896 52.3632 23.4896 52.3632L19.0896 52.7632C18.9896 52.7632 18.8896 52.7632 18.7896 52.6632L15.9896 49.2632C15.7896 49.0632 15.3896 49.1632 15.3896 49.4632L15.7896 53.8632C15.7896 53.9632 15.7896 54.0632 15.6896 54.1632L12.2896 56.9632C12.0896 57.1632 12.1896 57.5632 12.4896 57.5632L16.8896 57.1632C16.9896 57.1632 17.0896 57.1632 17.1896 57.2632L19.9896 60.6632C20.1896 60.8632 20.5896 60.7632 20.5896 60.4632L20.1896 56.0632C20.0896 55.9632 20.1896 55.8632 20.2896 55.7632Z" fill="#C3FF19"/>
<path d="M53.7895 5.56317L56.0896 3.76317C56.2896 3.66317 56.1896 3.36317 55.8896 3.36317L52.9895 3.66317C52.8895 3.66317 52.8895 3.66317 52.7895 3.56317L50.9895 1.26317C50.8895 1.06317 50.5896 1.16317 50.5896 1.46317L50.8896 4.36317C50.8896 4.46317 50.8895 4.46317 50.7895 4.56317L48.4895 6.36317C48.2895 6.46317 48.3896 6.76317 48.6896 6.76317L51.5896 6.46317C51.6896 6.46317 51.6895 6.46317 51.7895 6.56317L53.5896 8.86317C53.6896 9.06317 53.9895 8.96317 53.9895 8.66317L53.6896 5.76317C53.6896 5.66317 53.6895 5.56317 53.7895 5.56317Z" fill="#C3FF19"/>
<path d="M128.49 94.3632L132.49 96.4632C132.79 96.6632 133.09 96.2632 132.89 95.9632L130.69 91.9632C130.59 91.8632 130.59 91.7632 130.69 91.6632L132.79 87.6632C132.99 87.3632 132.59 87.0632 132.29 87.2632L128.29 89.4632C128.19 89.5632 128.09 89.5632 127.99 89.4632L123.99 87.3632C123.69 87.1632 123.39 87.5632 123.59 87.8632L125.79 91.8632C125.89 91.9632 125.89 92.0632 125.79 92.1632L123.69 96.1632C123.49 96.4632 123.89 96.7632 124.19 96.5632L128.19 94.3632C128.29 94.3632 128.39 94.3632 128.49 94.3632Z" fill="#C3FF19"/>
<path d="M44.6896 88.6633L47.7896 90.2633C47.9896 90.3633 48.2896 90.1633 48.0896 89.9633L46.3896 86.9633C46.3896 86.8633 46.3896 86.7633 46.3896 86.7633L47.9896 83.6633C48.0896 83.4633 47.8896 83.1633 47.6896 83.3633L44.6896 85.0633C44.5896 85.0633 44.4896 85.0633 44.4896 85.0633L41.3896 83.4633C41.1896 83.3633 40.8896 83.5633 41.0896 83.7633L42.7896 86.7633C42.7896 86.8633 42.7896 86.9633 42.7896 86.9633L41.1896 90.0633C41.0896 90.2633 41.2896 90.5633 41.4896 90.3633L44.4896 88.6633C44.5896 88.6633 44.6896 88.6633 44.6896 88.6633Z" fill="#C3FF19"/>
<path d="M42.5898 111.163L45.5898 112.663C45.7898 112.763 46.0898 112.563 45.8898 112.363L44.1898 109.463C44.1898 109.363 44.1898 109.263 44.1898 109.263L45.6898 106.263C45.7898 106.063 45.5898 105.763 45.3898 105.963L42.4898 107.563C42.3898 107.563 42.2898 107.563 42.2898 107.563L39.2898 106.063C39.0898 105.963 38.7898 106.163 38.9898 106.363L40.6898 109.263C40.6898 109.363 40.6898 109.463 40.6898 109.463L39.1898 112.463C39.0898 112.663 39.2898 112.963 39.4898 112.763L42.3898 111.063C42.4898 111.163 42.5898 111.163 42.5898 111.163Z" fill="#C3FF19"/>
<path d="M99.4896 5.96335L102.49 7.46335C102.69 7.56335 102.89 7.36335 102.79 7.16335L101.19 4.26335C101.19 4.16335 101.19 4.06335 101.19 4.06335L102.69 1.16335C102.79 0.963354 102.59 0.763354 102.39 0.863354L99.4896 2.46335C99.3896 2.46335 99.2896 2.46335 99.2896 2.46335L96.1896 0.763354C95.9896 0.663354 95.7896 0.863354 95.8896 1.06335L97.4896 3.96335C97.4896 4.06335 97.4896 4.16335 97.4896 4.16335L95.9896 7.16335C95.8896 7.36335 96.0896 7.56335 96.2896 7.46335L99.1896 5.96335C99.2896 5.86335 99.3896 5.86335 99.4896 5.96335Z" fill="#C3FF19"/>
<path d="M133.49 44.5633L96.9897 44.2633L114.99 16.1633L133.49 44.5633Z" fill="#191918"/>
<path d="M96.9898 44.2633H59.7898L77.7898 16.1633L96.9898 44.2633Z" fill="#191918"/>
<path d="M80.6896 18.0633L86.2896 16.3633C86.6896 16.2633 86.6896 15.6633 86.2896 15.5633L80.6896 13.8633C80.5896 13.8633 80.3896 13.7633 80.3896 13.5633L78.6896 7.96333C78.5896 7.56333 77.9896 7.56333 77.8896 7.96333L76.1896 13.5633C76.1896 13.6633 76.0896 13.8633 75.8896 13.8633L70.1896 15.5633C69.7896 15.6633 69.7896 16.2633 70.1896 16.3633L75.7896 18.0633C75.8896 18.0633 76.0897 18.1633 76.0897 18.3633L77.7896 23.9633C77.8896 24.3633 78.4896 24.3633 78.5897 23.9633L80.2896 18.3633C80.3896 18.2633 80.4896 18.1633 80.6896 18.0633Z" fill="#C3FF19"/>
<path d="M135.19 45.3634L139.59 44.0634C139.89 43.9634 139.89 43.4634 139.59 43.4634L135.19 42.1634C135.09 42.1634 134.99 42.0634 134.99 41.9634L133.69 37.5634C133.59 37.2634 133.09 37.2634 133.09 37.5634L131.79 41.9634C131.79 42.0634 131.69 42.1634 131.59 42.1634L127.19 43.4634C126.89 43.5634 126.89 44.0634 127.19 44.0634L131.59 45.3634C131.69 45.3634 131.79 45.4634 131.79 45.5634L133.09 49.9634C133.19 50.2634 133.69 50.2634 133.69 49.9634L134.99 45.5634C134.99 45.4634 135.09 45.3634 135.19 45.3634Z" fill="#C3FF19"/>
<defs>
<filter id="filter0_d_95_3531" x="0.289795" y="5.16333" width="155.3" height="141.1" filterUnits="userSpaceOnUse" color-interpolation-filters="sRGB">
<feFlood flood-opacity="0" result="BackgroundImageFix"/>
<feColorMatrix in="SourceAlpha" type="matrix" values="0 0 0 0 0 0 0 0 0 0 0 0 0 0 0 0 0 0 127 0" result="hardAlpha"/>
<feOffset dy="11"/>
<feGaussianBlur stdDeviation="11"/>
<feColorMatrix type="matrix" values="0 0 0 0 0 0 0 0 0 0 0 0 0 0 0 0 0 0 0.27 0"/>
<feBlend mode="normal" in2="BackgroundImageFix" result="effect1_dropShadow_95_3531"/>
<feBlend mode="normal" in="SourceGraphic" in2="effect1_dropShadow_95_3531" result="shape"/>
</filter>
</defs>
</svg>
