<svg width="16" height="16" viewBox="0 0 16 16" fill="none" xmlns="http://www.w3.org/2000/svg">
<g id="vuesax/outline/tag">
<g id="tag">
<path id="Vector" d="M8.04667 14.6533C7.10667 14.6533 6.16 14.2933 5.44667 13.58L2.42667 10.56C1.69334 9.82666 1.30667 8.81333 1.35334 7.77999L1.51334 4.44666C1.58667 2.85333 2.84667 1.59333 4.44667 1.51333L7.78 1.35333C8.81334 1.31333 9.82667 1.69333 10.56 2.42666L13.58 5.44666C15.0133 6.88 15.0133 9.21999 13.58 10.6533L10.6533 13.58C9.93334 14.2933 8.99334 14.6533 8.04667 14.6533ZM3.13333 9.84666L6.15333 12.8667C6.66 13.3733 7.33334 13.6533 8.04667 13.6533C8.76 13.6533 9.43334 13.3733 9.94 12.8667L12.8667 9.93999C13.3733 9.43333 13.6533 8.75999 13.6533 8.04666C13.6533 7.33333 13.3733 6.65999 12.8667 6.15333L9.84667 3.13333C9.31334 2.59999 8.57334 2.31333 7.82667 2.35333L4.49333 2.51333C3.40667 2.55999 2.56 3.40666 2.50667 4.48666L2.34667 7.81999C2.31334 8.57333 2.6 9.31333 3.13333 9.84666Z" fill="#71717A"/>
<path id="Vector_2" d="M6.33333 8.50001C5.14 8.50001 4.16667 7.52667 4.16667 6.33334C4.16667 5.14001 5.14 4.16667 6.33333 4.16667C7.52667 4.16667 8.5 5.14001 8.5 6.33334C8.5 7.52667 7.52667 8.50001 6.33333 8.50001ZM6.33333 5.16667C5.69333 5.16667 5.16667 5.69334 5.16667 6.33334C5.16667 6.97334 5.69333 7.50001 6.33333 7.50001C6.97333 7.50001 7.5 6.97334 7.5 6.33334C7.5 5.69334 6.97333 5.16667 6.33333 5.16667Z" fill="#71717A"/>
</g>
</g>
</svg>
